<svg xmlns="http://www.w3.org/2000/svg" viewBox="0 0 1600 900" width="1600" height="900">
  <rect width="1600" height="900" fill="#0a0a0a"></rect>

  <defs>
    
    <g id="wrench" opacity="0.55">
      <rect x="0" y="5" width="30" height="6" rx="2" fill="none" stroke="white" stroke-width="1.6"></rect>
      <rect x="28" y="0" width="16" height="16" rx="3" fill="none" stroke="white" stroke-width="1.6"></rect>
    </g>

    
    <g id="hex-bolt" opacity="0.75">
      <polygon points="14,0 26.1,7 26.1,21 14,28 1.9,21 1.9,7" fill="#F5C518"></polygon>
      <polygon points="14,8 19.5,11.2 19.5,16.8 14,20 8.5,16.8 8.5,11.2" fill="#0a0a0a"></polygon>
    </g>

    
    <g id="tire" opacity="0.42">
      <circle cx="25" cy="25" r="23" fill="none" stroke="white" stroke-width="1.6"></circle>
      <circle cx="25" cy="25" r="14" fill="none" stroke="white" stroke-width="1.2"></circle>
      <circle cx="25" cy="25" r="5" fill="none" stroke="white" stroke-width="1.6"></circle>
      <line x1="25" y1="20" x2="25" y2="11" stroke="white" stroke-width="1"></line>
      <line x1="25" y1="30" x2="25" y2="39" stroke="white" stroke-width="1"></line>
      <line x1="20" y1="25" x2="11" y2="25" stroke="white" stroke-width="1"></line>
      <line x1="30" y1="25" x2="39" y2="25" stroke="white" stroke-width="1"></line>
    </g>

    
    <g id="van" opacity="0.38">
      <rect x="0" y="10" width="60" height="18" rx="2.5" fill="none" stroke="white" stroke-width="1.6"></rect>
      <rect x="36" y="2" width="24" height="13" rx="2" fill="none" stroke="white" stroke-width="1.6"></rect>
      <circle cx="13" cy="30" r="6" fill="none" stroke="white" stroke-width="1.6"></circle>
      <circle cx="47" cy="30" r="6" fill="none" stroke="white" stroke-width="1.6"></circle>
    </g>

    
    <g id="screw" opacity="0.68">
      <circle cx="9" cy="9" r="8.5" fill="#F5C518"></circle>
      <line x1="9" y1="2" x2="9" y2="16" stroke="#0a0a0a" stroke-width="2.6" stroke-linecap="round"></line>
      <line x1="2" y1="9" x2="16" y2="9" stroke="#0a0a0a" stroke-width="2.6" stroke-linecap="round"></line>
    </g>
  </defs>

  
  <use href="#wrench" transform="translate(1200,100) rotate(30,22,8)"></use>
  <use href="#wrench" transform="translate(1440,188) rotate(-20,22,8)"></use>
  <use href="#wrench" transform="translate(938,344) rotate(48,22,8)"></use>
  <use href="#wrench" transform="translate(1336,444) rotate(15,22,8)"></use>
  <use href="#wrench" transform="translate(1488,614) rotate(-38,22,8)"></use>
  <use href="#wrench" transform="translate(738,694) rotate(25,22,8)"></use>
  <use href="#wrench" transform="translate(1138,793) rotate(-15,22,8)"></use>
  <use href="#wrench" transform="translate(58,494) rotate(62,22,8)"></use>
  <use href="#wrench" transform="translate(378,714) rotate(-12,22,8)"></use>
  <use href="#wrench" transform="translate(1558,370) rotate(42,22,8)"></use>

  
  <use href="#hex-bolt" transform="translate(1088,72) rotate(0,14,14)"></use>
  <use href="#hex-bolt" transform="translate(1368,148) rotate(30,14,14)"></use>
  <use href="#hex-bolt" transform="translate(793,238) rotate(15,14,14)"></use>
  <use href="#hex-bolt" transform="translate(1533,308) rotate(-22,14,14)"></use>
  <use href="#hex-bolt" transform="translate(1263,528) rotate(45,14,14)"></use>
  <use href="#hex-bolt" transform="translate(38,368) rotate(8,14,14)"></use>
  <use href="#hex-bolt" transform="translate(580,572) rotate(0,14,14)"></use>
  <use href="#hex-bolt" transform="translate(1453,708) rotate(-28,14,14)"></use>
  <use href="#hex-bolt" transform="translate(183,768) rotate(20,14,14)"></use>
  <use href="#hex-bolt" transform="translate(943,838) rotate(0,14,14)"></use>
  <use href="#hex-bolt" transform="translate(333,148) rotate(25,14,14)"></use>
  <use href="#hex-bolt" transform="translate(58,88) rotate(-12,14,14)"></use>

  
  <use href="#tire" transform="translate(1328,66)"></use>
  <use href="#tire" transform="translate(1553,188)"></use>
  <use href="#tire" transform="translate(856,390)"></use>
  <use href="#tire" transform="translate(1183,666)"></use>
  <use href="#tire" transform="translate(476,838)"></use>
  <use href="#tire" transform="translate(1478,846)"></use>
  <use href="#tire" transform="translate(82,638)"></use>

  
  <use href="#van" transform="translate(1046,213)"></use>
  <use href="#van" transform="translate(1303,693)"></use>
  <use href="#van" transform="translate(686,813)"></use>
  <use href="#van" transform="translate(183,293)"></use>

  
  <use href="#screw" transform="translate(640,142) rotate(18,9,9)"></use>
  <use href="#screw" transform="translate(436,370) rotate(0,9,9)"></use>
  <use href="#screw" transform="translate(1066,472) rotate(30,9,9)"></use>
  <use href="#screw" transform="translate(1403,352) rotate(-15,9,9)"></use>
  <use href="#screw" transform="translate(286,592) rotate(0,9,9)"></use>
  <use href="#screw" transform="translate(891,642) rotate(12,9,9)"></use>
  <use href="#screw" transform="translate(1548,572) rotate(0,9,9)"></use>
  <use href="#screw" transform="translate(50,191) rotate(-8,9,9)"></use>

</svg>